<svg width="21" height="20" viewBox="0 0 21 20" fill="none" xmlns="http://www.w3.org/2000/svg">
<path d="M7.8425 0H1.11408C0.816665 0 0.531431 0.117063 0.321127 0.325437C0.110823 0.533811 -0.00732422 0.816426 -0.00732422 1.11111V7.77778C-0.00732422 8.07246 0.110823 8.35508 0.321127 8.56345C0.531431 8.77183 0.816665 8.88889 1.11408 8.88889H7.8425C8.13992 8.88889 8.42515 8.77183 8.63546 8.56345C8.84576 8.35508 8.96391 8.07246 8.96391 7.77778V1.11111C8.96391 0.816426 8.84576 0.533811 8.63546 0.325437C8.42515 0.117063 8.13992 0 7.8425 0ZM6.7211 6.66667H2.23548V2.22222H6.7211V6.66667ZM19.0565 0H12.3281C12.0307 0 11.7455 0.117063 11.5352 0.325437C11.3249 0.533811 11.2067 0.816426 11.2067 1.11111V7.77778C11.2067 8.07246 11.3249 8.35508 11.5352 8.56345C11.7455 8.77183 12.0307 8.88889 12.3281 8.88889H19.0565C19.354 8.88889 19.6392 8.77183 19.8495 8.56345C20.0598 8.35508 20.1779 8.07246 20.1779 7.77778V1.11111C20.1779 0.816426 20.0598 0.533811 19.8495 0.325437C19.6392 0.117063 19.354 0 19.0565 0ZM17.9351 6.66667H13.4495V2.22222H17.9351V6.66667ZM7.8425 11.1111H1.11408C0.816665 11.1111 0.531431 11.2282 0.321127 11.4365C0.110823 11.6449 -0.00732422 11.9275 -0.00732422 12.2222V18.8889C-0.00732422 19.1836 0.110823 19.4662 0.321127 19.6746C0.531431 19.8829 0.816665 20 1.11408 20H7.8425C8.13992 20 8.42515 19.8829 8.63546 19.6746C8.84576 19.4662 8.96391 19.1836 8.96391 18.8889V12.2222C8.96391 11.9275 8.84576 11.6449 8.63546 11.4365C8.42515 11.2282 8.13992 11.1111 7.8425 11.1111ZM6.7211 17.7778H2.23548V13.3333H6.7211V17.7778ZM15.6923 11.1111C13.2185 11.1111 11.2067 13.1044 11.2067 15.5556C11.2067 18.0067 13.2185 20 15.6923 20C18.1661 20 20.1779 18.0067 20.1779 15.5556C20.1779 13.1044 18.1661 11.1111 15.6923 11.1111ZM15.6923 17.7778C14.4554 17.7778 13.4495 16.7811 13.4495 15.5556C13.4495 14.33 14.4554 13.3333 15.6923 13.3333C16.9292 13.3333 17.9351 14.33 17.9351 15.5556C17.9351 16.7811 16.9292 17.7778 15.6923 17.7778Z" fill="#212529"/>
</svg>
